<mxfile host="65bd71144e">
    <diagram id="C5RBs43oDa-KdzZeNtuy" name="Page-1">
        <mxGraphModel dx="2375" dy="1431" grid="0" gridSize="10" guides="1" tooltips="1" connect="1" arrows="1" fold="1" page="0" pageScale="1" pageWidth="827" pageHeight="1169" background="none" math="0" shadow="0">
            <root>
                <mxCell id="WIyWlLk6GJQsqaUBKTNV-0"/>
                <mxCell id="WIyWlLk6GJQsqaUBKTNV-1" parent="WIyWlLk6GJQsqaUBKTNV-0"/>
                <mxCell id="zkfFHV4jXpPFQw0GAbJ--0" value="Vehicle" style="swimlane;fontStyle=2;align=center;verticalAlign=top;childLayout=stackLayout;horizontal=1;startSize=26;horizontalStack=0;resizeParent=1;resizeLast=0;collapsible=1;marginBottom=0;rounded=0;shadow=0;strokeWidth=1;" parent="WIyWlLk6GJQsqaUBKTNV-1" vertex="1">
                    <mxGeometry x="180" y="-270" width="260" height="650" as="geometry">
                        <mxRectangle x="230" y="140" width="160" height="26" as="alternateBounds"/>
                    </mxGeometry>
                </mxCell>
                <mxCell id="zkfFHV4jXpPFQw0GAbJ--1" value="- nrDoors: int                                       &#xa;  - enginePower: double                                &#xa;  - currentSpeed: double                               &#xa;  - color: Color                                       &#xa;  - modelName: String                                  &#xa;  - widthOfVehicle: int&#xa;  - outOfOrder: Boolean&#xa;-positionmanger: Positionmanager" style="text;align=left;verticalAlign=top;spacingLeft=4;spacingRight=4;overflow=hidden;rotatable=0;points=[[0,0.5],[1,0.5]];portConstraint=eastwest;" parent="zkfFHV4jXpPFQw0GAbJ--0" vertex="1">
                    <mxGeometry y="26" width="260" height="164" as="geometry"/>
                </mxCell>
                <mxCell id="zkfFHV4jXpPFQw0GAbJ--4" value="" style="line;html=1;strokeWidth=1;align=left;verticalAlign=middle;spacingTop=-1;spacingLeft=3;spacingRight=3;rotatable=0;labelPosition=right;points=[];portConstraint=eastwest;" parent="zkfFHV4jXpPFQw0GAbJ--0" vertex="1">
                    <mxGeometry y="190" width="260" height="10" as="geometry"/>
                </mxCell>
                <mxCell id="5mUnr2l8FiMVsgKl3YdA-2" value="+ Vehicle(nrDoors: &lt;span class=&quot;hljs-type&quot;&gt;int&lt;/span&gt;, enginePower: &lt;span class=&quot;hljs-type&quot;&gt;double&lt;/span&gt;,         &lt;br&gt;             currentSpeed: &lt;span class=&quot;hljs-type&quot;&gt;double&lt;/span&gt;, color: Color,        &lt;br&gt;             modelname: String, widthOfVehicle: &lt;span class=&quot;hljs-type&quot;&gt;int&lt;/span&gt;)    &lt;br&gt;   + getwidthOfCar(): &lt;span class=&quot;hljs-type&quot;&gt;int&lt;/span&gt;                               &lt;br&gt;   + getNrDoors(): &lt;span class=&quot;hljs-type&quot;&gt;int&lt;/span&gt;                                  &lt;br&gt;   + getEnginePower(): &lt;span class=&quot;hljs-type&quot;&gt;double&lt;/span&gt;                           &lt;br&gt;   + getCurrentSpeed(): &lt;span class=&quot;hljs-type&quot;&gt;double&lt;/span&gt;                          &lt;br&gt;   + getColor(): Color                                  &lt;br&gt;   + setColor(clr: Color): &lt;span class=&quot;hljs-type&quot;&gt;void&lt;/span&gt;                         &lt;br&gt;   + getmodelname(): String                             &lt;br&gt;   + startFixingVehicle(): &lt;span class=&quot;hljs-type&quot;&gt;void&lt;/span&gt;                         &lt;br&gt;   + setOutOfOrderOn(): &lt;span class=&quot;hljs-type&quot;&gt;void&lt;/span&gt;                            &lt;br&gt;   + setOutOfOrderOff(): &lt;span class=&quot;hljs-type&quot;&gt;void&lt;/span&gt;                           &lt;br&gt;   + getOutOfOrder(): &lt;span class=&quot;hljs-type&quot;&gt;Boolean&lt;/span&gt;                           &lt;br&gt;   + startEngine(): &lt;span class=&quot;hljs-type&quot;&gt;void&lt;/span&gt;                                &lt;br&gt;   + stopEngine(): &lt;span class=&quot;hljs-type&quot;&gt;void&lt;/span&gt;                                 &lt;br&gt;   + incrementSpeed(amount: &lt;span class=&quot;hljs-type&quot;&gt;double&lt;/span&gt;): &lt;span class=&quot;hljs-type&quot;&gt;void&lt;/span&gt;              &lt;br&gt;   + decrementSpeed(amount: &lt;span class=&quot;hljs-type&quot;&gt;double&lt;/span&gt;): &lt;span class=&quot;hljs-type&quot;&gt;void&lt;/span&gt;              &lt;br&gt;   + gas(amount: &lt;span class=&quot;hljs-type&quot;&gt;double&lt;/span&gt;): &lt;span class=&quot;hljs-type&quot;&gt;void&lt;/span&gt;                          &lt;br&gt;   + brake(amount: &lt;span class=&quot;hljs-type&quot;&gt;double&lt;/span&gt;): &lt;span class=&quot;hljs-type&quot;&gt;void&lt;/span&gt;                        &lt;br&gt;   + &lt;span class=&quot;hljs-keyword&quot;&gt;move&lt;/span&gt;(): &lt;span class=&quot;hljs-type&quot;&gt;void&lt;/span&gt;&lt;br&gt;   # speedFactor(): &lt;span class=&quot;hljs-type&quot;&gt;double&lt;/span&gt; [abstract]&amp;nbsp;" style="text;html=1;align=center;verticalAlign=middle;resizable=0;points=[];autosize=1;strokeColor=none;fillColor=none;" parent="zkfFHV4jXpPFQw0GAbJ--0" vertex="1">
                    <mxGeometry y="200" width="260" height="330" as="geometry"/>
                </mxCell>
                <mxCell id="5mUnr2l8FiMVsgKl3YdA-3" value="Car" style="swimlane;fontStyle=0;childLayout=stackLayout;horizontal=1;startSize=30;horizontalStack=0;resizeParent=1;resizeParentMax=0;resizeLast=0;collapsible=1;marginBottom=0;whiteSpace=wrap;html=1;" parent="WIyWlLk6GJQsqaUBKTNV-1" vertex="1">
                    <mxGeometry x="-220" y="-240" width="150" height="130" as="geometry">
                        <mxRectangle x="-220" y="-160" width="60" height="30" as="alternateBounds"/>
                    </mxGeometry>
                </mxCell>
                <mxCell id="5mUnr2l8FiMVsgKl3YdA-4" value="+ Car(nrDoors: &lt;span class=&quot;hljs-type&quot;&gt;int&lt;/span&gt;,&amp;nbsp;&lt;br&gt;enginePower: &lt;span class=&quot;hljs-type&quot;&gt;double&lt;/span&gt;,&amp;nbsp;&lt;br&gt;&amp;nbsp;currentSpeed: &lt;span class=&quot;hljs-type&quot;&gt;double&lt;/span&gt;,&lt;br&gt;&amp;nbsp;color: Color,&amp;nbsp;&lt;br&gt;&amp;nbsp;modelname: String,&amp;nbsp;&lt;br&gt;&amp;nbsp; widthOfCar: &lt;span class=&quot;hljs-type&quot;&gt;int&lt;/span&gt;)&amp;nbsp;&amp;nbsp;" style="text;strokeColor=none;fillColor=none;align=left;verticalAlign=middle;spacingLeft=4;spacingRight=4;overflow=hidden;points=[[0,0.5],[1,0.5]];portConstraint=eastwest;rotatable=0;whiteSpace=wrap;html=1;" parent="5mUnr2l8FiMVsgKl3YdA-3" vertex="1">
                    <mxGeometry y="30" width="150" height="100" as="geometry"/>
                </mxCell>
                <mxCell id="5mUnr2l8FiMVsgKl3YdA-10" style="edgeStyle=orthogonalEdgeStyle;rounded=0;orthogonalLoop=1;jettySize=auto;html=1;exitX=1;exitY=0.5;exitDx=0;exitDy=0;entryX=0.002;entryY=0.018;entryDx=0;entryDy=0;entryPerimeter=0;" parent="WIyWlLk6GJQsqaUBKTNV-1" source="5mUnr2l8FiMVsgKl3YdA-4" target="zkfFHV4jXpPFQw0GAbJ--0" edge="1">
                    <mxGeometry relative="1" as="geometry"/>
                </mxCell>
                <mxCell id="5mUnr2l8FiMVsgKl3YdA-11" value="Truck" style="swimlane;fontStyle=0;childLayout=stackLayout;horizontal=1;startSize=30;horizontalStack=0;resizeParent=1;resizeParentMax=0;resizeLast=0;collapsible=1;marginBottom=0;whiteSpace=wrap;html=1;" parent="WIyWlLk6GJQsqaUBKTNV-1" vertex="1">
                    <mxGeometry x="-110" y="-80" width="210" height="290" as="geometry"/>
                </mxCell>
                <mxCell id="5mUnr2l8FiMVsgKl3YdA-12" value="&amp;nbsp;- TruckSpeedFactor: &lt;span class=&quot;hljs-type&quot;&gt;double&lt;/span&gt; = &lt;span class=&quot;hljs-number&quot;&gt;10&lt;/span&gt;&amp;nbsp;&lt;br&gt;&amp;nbsp;- TruckBedIsClosed: &lt;span class=&quot;hljs-type&quot;&gt;boolean&lt;/span&gt; = true" style="text;strokeColor=none;fillColor=none;align=left;verticalAlign=middle;spacingLeft=4;spacingRight=4;overflow=hidden;points=[[0,0.5],[1,0.5]];portConstraint=eastwest;rotatable=0;whiteSpace=wrap;html=1;" parent="5mUnr2l8FiMVsgKl3YdA-11" vertex="1">
                    <mxGeometry y="30" width="210" height="70" as="geometry"/>
                </mxCell>
                <mxCell id="5mUnr2l8FiMVsgKl3YdA-14" value="+ Truck(nrDoors: &lt;span class=&quot;hljs-type&quot;&gt;int&lt;/span&gt;, enginePower: &lt;span class=&quot;hljs-type&quot;&gt;double&lt;/span&gt;, currentSpeed: &lt;span class=&quot;hljs-type&quot;&gt;double&lt;/span&gt;, color: Color,&amp;nbsp;&amp;nbsp;modelname: String, widthOfCar: &lt;span class=&quot;hljs-type&quot;&gt;int&lt;/span&gt;)&amp;nbsp;&lt;div&gt;&lt;br&gt;&lt;/div&gt;&lt;div&gt;&amp;nbsp;+ fullyClose(): &lt;span class=&quot;hljs-type&quot;&gt;void&lt;/span&gt;&amp;nbsp;&amp;nbsp;&lt;/div&gt;&lt;div&gt;+ fullyOpen(): &lt;span class=&quot;hljs-type&quot;&gt;void&lt;/span&gt;&amp;nbsp;&lt;/div&gt;&lt;div&gt;&amp;nbsp;+ getTruckBedIsClosed(): &lt;span class=&quot;hljs-type&quot;&gt;Boolean&lt;/span&gt;&amp;nbsp;&lt;br&gt;&amp;nbsp;+ startEngine(): &lt;span class=&quot;hljs-type&quot;&gt;void&lt;/span&gt;&amp;nbsp;&lt;br&gt;&amp;nbsp;+ gas(amount: &lt;span class=&quot;hljs-type&quot;&gt;double&lt;/span&gt;): &lt;span class=&quot;hljs-type&quot;&gt;void&lt;/span&gt;&amp;nbsp;&lt;br&gt;&amp;nbsp;+ brake(amount: &lt;span class=&quot;hljs-type&quot;&gt;double&lt;/span&gt;): &lt;span class=&quot;hljs-type&quot;&gt;void&lt;/span&gt;&amp;nbsp;&lt;br&gt;&amp;nbsp;# speedFactor(): &lt;span class=&quot;hljs-type&quot;&gt;double&lt;/span&gt;&lt;/div&gt;" style="text;strokeColor=default;fillColor=none;align=left;verticalAlign=middle;spacingLeft=4;spacingRight=4;overflow=hidden;points=[[0,0.5],[1,0.5]];portConstraint=eastwest;rotatable=0;whiteSpace=wrap;html=1;perimeterSpacing=3;" parent="5mUnr2l8FiMVsgKl3YdA-11" vertex="1">
                    <mxGeometry y="100" width="210" height="190" as="geometry"/>
                </mxCell>
                <mxCell id="5mUnr2l8FiMVsgKl3YdA-16" style="edgeStyle=orthogonalEdgeStyle;rounded=0;orthogonalLoop=1;jettySize=auto;html=1;exitX=1;exitY=0.5;exitDx=0;exitDy=0;" parent="WIyWlLk6GJQsqaUBKTNV-1" source="5mUnr2l8FiMVsgKl3YdA-14" target="5mUnr2l8FiMVsgKl3YdA-2" edge="1">
                    <mxGeometry relative="1" as="geometry"/>
                </mxCell>
                <mxCell id="5mUnr2l8FiMVsgKl3YdA-18" value="Truckbedfunctionality" style="swimlane;fontStyle=0;childLayout=stackLayout;horizontal=1;startSize=30;horizontalStack=0;resizeParent=1;resizeParentMax=0;resizeLast=0;collapsible=1;marginBottom=0;whiteSpace=wrap;html=1;" parent="WIyWlLk6GJQsqaUBKTNV-1" vertex="1">
                    <mxGeometry x="-160" y="320" width="140" height="90" as="geometry"/>
                </mxCell>
                <mxCell id="5mUnr2l8FiMVsgKl3YdA-19" value="void fullyClose()" style="text;strokeColor=none;fillColor=none;align=left;verticalAlign=middle;spacingLeft=4;spacingRight=4;overflow=hidden;points=[[0,0.5],[1,0.5]];portConstraint=eastwest;rotatable=0;whiteSpace=wrap;html=1;" parent="5mUnr2l8FiMVsgKl3YdA-18" vertex="1">
                    <mxGeometry y="30" width="140" height="30" as="geometry"/>
                </mxCell>
                <mxCell id="5mUnr2l8FiMVsgKl3YdA-20" value="void fullyOpen()" style="text;strokeColor=none;fillColor=none;align=left;verticalAlign=middle;spacingLeft=4;spacingRight=4;overflow=hidden;points=[[0,0.5],[1,0.5]];portConstraint=eastwest;rotatable=0;whiteSpace=wrap;html=1;" parent="5mUnr2l8FiMVsgKl3YdA-18" vertex="1">
                    <mxGeometry y="60" width="140" height="30" as="geometry"/>
                </mxCell>
                <mxCell id="5mUnr2l8FiMVsgKl3YdA-24" value="" style="endArrow=block;dashed=1;endFill=0;endSize=12;html=1;rounded=0;entryX=0.588;entryY=-0.03;entryDx=0;entryDy=0;entryPerimeter=0;exitX=0.537;exitY=0.997;exitDx=0;exitDy=0;exitPerimeter=0;" parent="WIyWlLk6GJQsqaUBKTNV-1" source="5mUnr2l8FiMVsgKl3YdA-14" target="5mUnr2l8FiMVsgKl3YdA-18" edge="1">
                    <mxGeometry width="160" relative="1" as="geometry">
                        <mxPoint x="-195" y="280" as="sourcePoint"/>
                        <mxPoint x="-35" y="280" as="targetPoint"/>
                    </mxGeometry>
                </mxCell>
                <mxCell id="5mUnr2l8FiMVsgKl3YdA-25" value="List" style="swimlane;fontStyle=0;childLayout=stackLayout;horizontal=1;startSize=0;horizontalStack=0;resizeParent=1;resizeParentMax=0;resizeLast=0;collapsible=1;marginBottom=0;whiteSpace=wrap;html=1;" parent="WIyWlLk6GJQsqaUBKTNV-1" vertex="1">
                    <mxGeometry x="440" y="-410" width="140" height="90" as="geometry"/>
                </mxCell>
                <mxCell id="5mUnr2l8FiMVsgKl3YdA-26" value="&amp;nbsp; &amp;nbsp; &amp;nbsp; &amp;nbsp; Moveable" style="text;strokeColor=none;fillColor=none;align=left;verticalAlign=middle;spacingLeft=4;spacingRight=4;overflow=hidden;points=[[0,0.5],[1,0.5]];portConstraint=eastwest;rotatable=0;whiteSpace=wrap;html=1;" parent="5mUnr2l8FiMVsgKl3YdA-25" vertex="1">
                    <mxGeometry width="140" height="30" as="geometry"/>
                </mxCell>
                <mxCell id="5mUnr2l8FiMVsgKl3YdA-27" value="void move()&lt;div&gt;void turnleft()&lt;/div&gt;&lt;div&gt;void turnright()&lt;/div&gt;" style="text;strokeColor=none;fillColor=none;align=left;verticalAlign=middle;spacingLeft=4;spacingRight=4;overflow=hidden;points=[[0,0.5],[1,0.5]];portConstraint=eastwest;rotatable=0;whiteSpace=wrap;html=1;" parent="5mUnr2l8FiMVsgKl3YdA-25" vertex="1">
                    <mxGeometry y="30" width="140" height="60" as="geometry"/>
                </mxCell>
                <mxCell id="5mUnr2l8FiMVsgKl3YdA-29" value="" style="endArrow=block;dashed=1;endFill=0;endSize=12;html=1;rounded=0;entryX=0.486;entryY=1.017;entryDx=0;entryDy=0;entryPerimeter=0;exitX=0.5;exitY=0;exitDx=0;exitDy=0;" parent="WIyWlLk6GJQsqaUBKTNV-1" source="fRvH9d7Fl_Srh9VhOspa-0" target="5mUnr2l8FiMVsgKl3YdA-27" edge="1">
                    <mxGeometry width="160" relative="1" as="geometry">
                        <mxPoint x="490" y="-230" as="sourcePoint"/>
                        <mxPoint x="509" y="-174" as="targetPoint"/>
                    </mxGeometry>
                </mxCell>
                <mxCell id="5mUnr2l8FiMVsgKl3YdA-30" value="Volvo240" style="swimlane;fontStyle=0;childLayout=stackLayout;horizontal=1;startSize=30;horizontalStack=0;resizeParent=1;resizeParentMax=0;resizeLast=0;collapsible=1;marginBottom=0;whiteSpace=wrap;html=1;" parent="WIyWlLk6GJQsqaUBKTNV-1" vertex="1">
                    <mxGeometry x="-483" y="-440" width="163" height="90" as="geometry"/>
                </mxCell>
                <mxCell id="5mUnr2l8FiMVsgKl3YdA-31" value="- trmifactor: double = 1.25" style="text;strokeColor=none;fillColor=none;align=left;verticalAlign=middle;spacingLeft=4;spacingRight=4;overflow=hidden;points=[[0,0.5],[1,0.5]];portConstraint=eastwest;rotatable=0;whiteSpace=wrap;html=1;" parent="5mUnr2l8FiMVsgKl3YdA-30" vertex="1">
                    <mxGeometry y="30" width="163" height="30" as="geometry"/>
                </mxCell>
                <mxCell id="5mUnr2l8FiMVsgKl3YdA-32" value="+Volvo240()&lt;div&gt;# speedFactor(): double&lt;/div&gt;" style="text;strokeColor=default;fillColor=none;align=left;verticalAlign=middle;spacingLeft=4;spacingRight=4;overflow=hidden;points=[[0,0.5],[1,0.5]];portConstraint=eastwest;rotatable=0;whiteSpace=wrap;html=1;" parent="5mUnr2l8FiMVsgKl3YdA-30" vertex="1">
                    <mxGeometry y="60" width="163" height="30" as="geometry"/>
                </mxCell>
                <mxCell id="MykYhQcLywwxDMIYupO4-1" style="edgeStyle=orthogonalEdgeStyle;rounded=0;orthogonalLoop=1;jettySize=auto;html=1;entryX=-0.013;entryY=0.44;entryDx=0;entryDy=0;entryPerimeter=0;" parent="WIyWlLk6GJQsqaUBKTNV-1" source="5mUnr2l8FiMVsgKl3YdA-32" target="5mUnr2l8FiMVsgKl3YdA-4" edge="1">
                    <mxGeometry relative="1" as="geometry"/>
                </mxCell>
                <mxCell id="MykYhQcLywwxDMIYupO4-2" value="Saab95" style="swimlane;fontStyle=0;childLayout=stackLayout;horizontal=1;startSize=30;horizontalStack=0;resizeParent=1;resizeParentMax=0;resizeLast=0;collapsible=1;marginBottom=0;whiteSpace=wrap;html=1;" parent="WIyWlLk6GJQsqaUBKTNV-1" vertex="1">
                    <mxGeometry x="-250" y="-440" width="163" height="130" as="geometry"/>
                </mxCell>
                <mxCell id="MykYhQcLywwxDMIYupO4-3" value="- turbo: double =100.&lt;div&gt;- turboOn: boolean = false&lt;/div&gt;" style="text;strokeColor=none;fillColor=none;align=left;verticalAlign=middle;spacingLeft=4;spacingRight=4;overflow=hidden;points=[[0,0.5],[1,0.5]];portConstraint=eastwest;rotatable=0;whiteSpace=wrap;html=1;" parent="MykYhQcLywwxDMIYupO4-2" vertex="1">
                    <mxGeometry y="30" width="163" height="30" as="geometry"/>
                </mxCell>
                <mxCell id="MykYhQcLywwxDMIYupO4-4" value="+Saab95()&lt;div&gt;#speedfactor(): double&lt;/div&gt;&lt;div&gt;+ setTurboOn(): void&lt;/div&gt;&lt;div&gt;+setTurboOff(): void&lt;/div&gt;" style="text;strokeColor=default;fillColor=none;align=left;verticalAlign=middle;spacingLeft=4;spacingRight=4;overflow=hidden;points=[[0,0.5],[1,0.5]];portConstraint=eastwest;rotatable=0;whiteSpace=wrap;html=1;" parent="MykYhQcLywwxDMIYupO4-2" vertex="1">
                    <mxGeometry y="60" width="163" height="70" as="geometry"/>
                </mxCell>
                <mxCell id="MykYhQcLywwxDMIYupO4-5" style="edgeStyle=orthogonalEdgeStyle;rounded=0;orthogonalLoop=1;jettySize=auto;html=1;entryX=0.5;entryY=0;entryDx=0;entryDy=0;exitX=0.534;exitY=1.029;exitDx=0;exitDy=0;exitPerimeter=0;" parent="WIyWlLk6GJQsqaUBKTNV-1" source="MykYhQcLywwxDMIYupO4-4" target="5mUnr2l8FiMVsgKl3YdA-3" edge="1">
                    <mxGeometry relative="1" as="geometry">
                        <mxPoint x="-40" y="-370" as="sourcePoint"/>
                        <mxPoint x="58" y="-171" as="targetPoint"/>
                        <Array as="points">
                            <mxPoint x="-145" y="-308"/>
                        </Array>
                    </mxGeometry>
                </mxCell>
                <mxCell id="MykYhQcLywwxDMIYupO4-10" style="edgeStyle=orthogonalEdgeStyle;rounded=0;orthogonalLoop=1;jettySize=auto;html=1;exitX=1.014;exitY=-0.003;exitDx=0;exitDy=0;exitPerimeter=0;entryX=0.008;entryY=0.597;entryDx=0;entryDy=0;entryPerimeter=0;" parent="WIyWlLk6GJQsqaUBKTNV-1" source="MykYhQcLywwxDMIYupO4-9" target="5mUnr2l8FiMVsgKl3YdA-14" edge="1">
                    <mxGeometry relative="1" as="geometry"/>
                </mxCell>
                <mxCell id="MykYhQcLywwxDMIYupO4-6" value="Scania" style="swimlane;fontStyle=0;childLayout=stackLayout;horizontal=1;startSize=30;horizontalStack=0;resizeParent=1;resizeParentMax=0;resizeLast=0;collapsible=1;marginBottom=0;whiteSpace=wrap;html=1;" parent="WIyWlLk6GJQsqaUBKTNV-1" vertex="1">
                    <mxGeometry x="-450" y="210" width="270" height="180" as="geometry"/>
                </mxCell>
                <mxCell id="MykYhQcLywwxDMIYupO4-8" value="-angle: double =0.0&lt;div&gt;-maxangle: int = 70&lt;/div&gt;&lt;div&gt;-minangle: int = 0&lt;/div&gt;" style="text;strokeColor=default;fillColor=none;align=left;verticalAlign=middle;spacingLeft=4;spacingRight=4;overflow=hidden;points=[[0,0.5],[1,0.5]];portConstraint=eastwest;rotatable=0;whiteSpace=wrap;html=1;" parent="MykYhQcLywwxDMIYupO4-6" vertex="1">
                    <mxGeometry y="30" width="270" height="50" as="geometry"/>
                </mxCell>
                <mxCell id="MykYhQcLywwxDMIYupO4-9" value="+ Scania()&lt;div&gt;#raiseAngle(incrementdegrees : double): void&lt;/div&gt;&lt;div&gt;#lowerAngle(decrementdegrees : double): void&lt;/div&gt;&lt;div&gt;+ getangle() : ´double&lt;/div&gt;&lt;div&gt;+ getmaxangle(): int&lt;/div&gt;&lt;div&gt;+ getminangle() : int&amp;nbsp;&lt;/div&gt;&lt;div&gt;&lt;br&gt;&lt;/div&gt;" style="text;strokeColor=none;fillColor=none;align=left;verticalAlign=middle;spacingLeft=4;spacingRight=4;overflow=hidden;points=[[0,0.5],[1,0.5]];portConstraint=eastwest;rotatable=0;whiteSpace=wrap;html=1;" parent="MykYhQcLywwxDMIYupO4-6" vertex="1">
                    <mxGeometry y="80" width="270" height="100" as="geometry"/>
                </mxCell>
                <mxCell id="MykYhQcLywwxDMIYupO4-11" value="loadFunctionality" style="swimlane;fontStyle=0;childLayout=stackLayout;horizontal=1;startSize=30;horizontalStack=0;resizeParent=1;resizeParentMax=0;resizeLast=0;collapsible=1;marginBottom=0;whiteSpace=wrap;html=1;" parent="WIyWlLk6GJQsqaUBKTNV-1" vertex="1">
                    <mxGeometry x="-220" y="450" width="140" height="90" as="geometry"/>
                </mxCell>
                <mxCell id="MykYhQcLywwxDMIYupO4-12" value="void raiseangle()" style="text;strokeColor=none;fillColor=none;align=left;verticalAlign=middle;spacingLeft=4;spacingRight=4;overflow=hidden;points=[[0,0.5],[1,0.5]];portConstraint=eastwest;rotatable=0;whiteSpace=wrap;html=1;" parent="MykYhQcLywwxDMIYupO4-11" vertex="1">
                    <mxGeometry y="30" width="140" height="30" as="geometry"/>
                </mxCell>
                <mxCell id="MykYhQcLywwxDMIYupO4-13" value="void lowerangle()" style="text;strokeColor=none;fillColor=none;align=left;verticalAlign=middle;spacingLeft=4;spacingRight=4;overflow=hidden;points=[[0,0.5],[1,0.5]];portConstraint=eastwest;rotatable=0;whiteSpace=wrap;html=1;" parent="MykYhQcLywwxDMIYupO4-11" vertex="1">
                    <mxGeometry y="60" width="140" height="30" as="geometry"/>
                </mxCell>
                <mxCell id="MykYhQcLywwxDMIYupO4-14" value="" style="endArrow=block;dashed=1;endFill=0;endSize=12;html=1;rounded=0;" parent="WIyWlLk6GJQsqaUBKTNV-1" source="MykYhQcLywwxDMIYupO4-9" edge="1">
                    <mxGeometry width="160" relative="1" as="geometry">
                        <mxPoint x="620" y="-460" as="sourcePoint"/>
                        <mxPoint x="-220" y="460" as="targetPoint"/>
                    </mxGeometry>
                </mxCell>
                <mxCell id="MykYhQcLywwxDMIYupO4-15" value="TMF" style="swimlane;fontStyle=0;childLayout=stackLayout;horizontal=1;startSize=30;horizontalStack=0;resizeParent=1;resizeParentMax=0;resizeLast=0;collapsible=1;marginBottom=0;whiteSpace=wrap;html=1;" parent="WIyWlLk6GJQsqaUBKTNV-1" vertex="1">
                    <mxGeometry x="-430" y="-30" width="240" height="210" as="geometry"/>
                </mxCell>
                <mxCell id="MykYhQcLywwxDMIYupO4-16" value="- maxsize : int&lt;div&gt;-carlist : Deque&amp;lt;Car&amp;gt;&lt;/div&gt;&lt;div&gt;- widthOfLorry : int = 4&lt;/div&gt;" style="text;strokeColor=default;fillColor=none;align=left;verticalAlign=middle;spacingLeft=4;spacingRight=4;overflow=hidden;points=[[0,0.5],[1,0.5]];portConstraint=eastwest;rotatable=0;whiteSpace=wrap;html=1;" parent="MykYhQcLywwxDMIYupO4-15" vertex="1">
                    <mxGeometry y="30" width="240" height="50" as="geometry"/>
                </mxCell>
                <mxCell id="MykYhQcLywwxDMIYupO4-17" value="+TMF(maxsize : int)&lt;div&gt;+ loadCars(List&amp;lt;Car&amp;gt;) loadList) : void&lt;/div&gt;&lt;div&gt;+ isCarClose(car:Car) : Boolean&lt;/div&gt;&lt;div&gt;+ unloadCars() : Car&lt;/div&gt;&lt;div&gt;# move() : void&lt;/div&gt;&lt;div&gt;+ getmaxsize() : int&lt;/div&gt;&lt;div&gt;+ getcarlist(): Deque&amp;lt;Car&amp;gt;&lt;/div&gt;&lt;div&gt;+ widthoflorry(): int&lt;/div&gt;" style="text;strokeColor=none;fillColor=none;align=left;verticalAlign=middle;spacingLeft=4;spacingRight=4;overflow=hidden;points=[[0,0.5],[1,0.5]];portConstraint=eastwest;rotatable=0;whiteSpace=wrap;html=1;" parent="MykYhQcLywwxDMIYupO4-15" vertex="1">
                    <mxGeometry y="80" width="240" height="130" as="geometry"/>
                </mxCell>
                <mxCell id="MykYhQcLywwxDMIYupO4-19" style="edgeStyle=orthogonalEdgeStyle;rounded=0;orthogonalLoop=1;jettySize=auto;html=1;entryX=0.019;entryY=0.296;entryDx=0;entryDy=0;entryPerimeter=0;" parent="WIyWlLk6GJQsqaUBKTNV-1" source="MykYhQcLywwxDMIYupO4-15" target="5mUnr2l8FiMVsgKl3YdA-14" edge="1">
                    <mxGeometry relative="1" as="geometry"/>
                </mxCell>
                <mxCell id="rV6QF6fbAEuyPAtQNxwi-1" value="CarController" style="swimlane;fontStyle=0;childLayout=stackLayout;horizontal=1;startSize=30;horizontalStack=0;resizeParent=1;resizeParentMax=0;resizeLast=0;collapsible=1;marginBottom=0;whiteSpace=wrap;html=1;" parent="WIyWlLk6GJQsqaUBKTNV-1" vertex="1">
                    <mxGeometry x="-820" y="-220" width="260" height="240" as="geometry"/>
                </mxCell>
                <mxCell id="rV6QF6fbAEuyPAtQNxwi-2" value="- delay: int&lt;div&gt;&amp;nbsp;vehicles: Arraylist&amp;lt;Vehicle&amp;gt;&lt;/div&gt;&lt;div&gt;VolvoWorkshop: Workshop&amp;lt;Volvo240&amp;gt;&lt;/div&gt;&lt;div&gt;- timer: Timer&lt;/div&gt;&lt;div&gt;frame: carview&lt;/div&gt;&lt;div&gt;&lt;br&gt;&lt;/div&gt;" style="text;strokeColor=default;fillColor=none;align=left;verticalAlign=middle;spacingLeft=4;spacingRight=4;overflow=hidden;points=[[0,0.5],[1,0.5]];portConstraint=eastwest;rotatable=0;whiteSpace=wrap;html=1;" parent="rV6QF6fbAEuyPAtQNxwi-1" vertex="1">
                    <mxGeometry y="30" width="260" height="60" as="geometry"/>
                </mxCell>
                <mxCell id="rV6QF6fbAEuyPAtQNxwi-3" value="+ main(): void&lt;div&gt;+ turboOn(): void&lt;/div&gt;&lt;div&gt;+ turboOff(): void&lt;/div&gt;&lt;div&gt;+ Brake(amount: int): void&lt;/div&gt;&lt;div&gt;+ Gas(amount : int) : void&lt;/div&gt;&lt;div&gt;+liftScaniaBed(): void&lt;/div&gt;&lt;div&gt;+lowerScaniaBed(): void&lt;/div&gt;&lt;div&gt;+stopallcars(): void&lt;/div&gt;&lt;div&gt;+startallcars(): void&lt;/div&gt;&lt;div&gt;+actionperformed(&lt;span style=&quot;background-color: transparent; color: light-dark(rgb(0, 0, 0), rgb(255, 255, 255));&quot;&gt;e:Actionevent&lt;/span&gt;&lt;span style=&quot;background-color: transparent; color: light-dark(rgb(0, 0, 0), rgb(255, 255, 255));&quot;&gt;): void&lt;/span&gt;&lt;/div&gt;" style="text;strokeColor=default;fillColor=none;align=left;verticalAlign=middle;spacingLeft=4;spacingRight=4;overflow=hidden;points=[[0,0.5],[1,0.5]];portConstraint=eastwest;rotatable=0;whiteSpace=wrap;html=1;" parent="rV6QF6fbAEuyPAtQNxwi-1" vertex="1">
                    <mxGeometry y="90" width="260" height="150" as="geometry"/>
                </mxCell>
                <mxCell id="rV6QF6fbAEuyPAtQNxwi-5" value="Actionlistner" style="swimlane;fontStyle=0;childLayout=stackLayout;horizontal=1;startSize=30;horizontalStack=0;resizeParent=1;resizeParentMax=0;resizeLast=0;collapsible=1;marginBottom=0;whiteSpace=wrap;html=1;" parent="WIyWlLk6GJQsqaUBKTNV-1" vertex="1">
                    <mxGeometry x="-760" y="-470" width="140" height="60" as="geometry"/>
                </mxCell>
                <mxCell id="rV6QF6fbAEuyPAtQNxwi-10" value="" style="endArrow=block;dashed=1;endFill=0;endSize=12;html=1;rounded=0;entryX=0.5;entryY=1;entryDx=0;entryDy=0;" parent="WIyWlLk6GJQsqaUBKTNV-1" source="rV6QF6fbAEuyPAtQNxwi-1" target="rV6QF6fbAEuyPAtQNxwi-5" edge="1">
                    <mxGeometry width="160" relative="1" as="geometry">
                        <mxPoint x="-650" y="-250" as="sourcePoint"/>
                        <mxPoint x="-490" y="-250" as="targetPoint"/>
                    </mxGeometry>
                </mxCell>
                <mxCell id="rV6QF6fbAEuyPAtQNxwi-12" value="" style="endArrow=open;endFill=1;endSize=12;html=1;rounded=0;exitX=0.5;exitY=0;exitDx=0;exitDy=0;" parent="WIyWlLk6GJQsqaUBKTNV-1" source="MykYhQcLywwxDMIYupO4-15" target="5mUnr2l8FiMVsgKl3YdA-4" edge="1">
                    <mxGeometry width="160" relative="1" as="geometry">
                        <mxPoint x="-481.5" y="-130" as="sourcePoint"/>
                        <mxPoint x="-150" y="-100" as="targetPoint"/>
                    </mxGeometry>
                </mxCell>
                <mxCell id="rV6QF6fbAEuyPAtQNxwi-13" value="" style="endArrow=open;endFill=1;endSize=12;html=1;rounded=0;exitX=0.5;exitY=0;exitDx=0;exitDy=0;entryX=-0.008;entryY=0.967;entryDx=0;entryDy=0;entryPerimeter=0;" parent="WIyWlLk6GJQsqaUBKTNV-1" target="zkfFHV4jXpPFQw0GAbJ--1" edge="1">
                    <mxGeometry width="160" relative="1" as="geometry">
                        <mxPoint x="-560" y="-70" as="sourcePoint"/>
                        <mxPoint x="-400" y="-140" as="targetPoint"/>
                    </mxGeometry>
                </mxCell>
                <mxCell id="rV6QF6fbAEuyPAtQNxwi-14" value="" style="endArrow=open;endFill=1;endSize=12;html=1;rounded=0;" parent="WIyWlLk6GJQsqaUBKTNV-1" source="rV6QF6fbAEuyPAtQNxwi-3" target="rV6QF6fbAEuyPAtQNxwi-15" edge="1">
                    <mxGeometry width="160" relative="1" as="geometry">
                        <mxPoint x="-605.5" y="132.0899999999997" as="sourcePoint"/>
                        <mxPoint x="-570" y="170" as="targetPoint"/>
                    </mxGeometry>
                </mxCell>
                <mxCell id="rV6QF6fbAEuyPAtQNxwi-15" value="Workshop" style="swimlane;fontStyle=0;childLayout=stackLayout;horizontal=1;startSize=30;horizontalStack=0;resizeParent=1;resizeParentMax=0;resizeLast=0;collapsible=1;marginBottom=0;whiteSpace=wrap;html=1;" parent="WIyWlLk6GJQsqaUBKTNV-1" vertex="1">
                    <mxGeometry x="-420" y="610" width="190" height="310" as="geometry"/>
                </mxCell>
                <mxCell id="rV6QF6fbAEuyPAtQNxwi-16" value="- capacity : int&lt;div&gt;- model: T&lt;/div&gt;&lt;div&gt;- workshoplist: List&amp;lt;T&amp;gt;&lt;/div&gt;&lt;div&gt;- Xposition: double&lt;/div&gt;&lt;div&gt;-Ypostition : double&lt;/div&gt;&lt;div&gt;&lt;br&gt;&lt;/div&gt;" style="text;strokeColor=none;fillColor=none;align=left;verticalAlign=middle;spacingLeft=4;spacingRight=4;overflow=hidden;points=[[0,0.5],[1,0.5]];portConstraint=eastwest;rotatable=0;whiteSpace=wrap;html=1;" parent="rV6QF6fbAEuyPAtQNxwi-15" vertex="1">
                    <mxGeometry y="30" width="190" height="90" as="geometry"/>
                </mxCell>
                <mxCell id="rV6QF6fbAEuyPAtQNxwi-17" value="+ &lt;span class=&quot;hljs-title function_ invoke__&quot;&gt;fixCar&lt;/span&gt;(&lt;span class=&quot;hljs-attr&quot;&gt;damagedVehicle&lt;/span&gt;: T): &lt;span class=&quot;hljs-keyword&quot;&gt;void&lt;/span&gt;  &lt;br/&gt;+ &lt;span class=&quot;hljs-title function_ invoke__&quot;&gt;removeVehicle&lt;/span&gt;(&lt;span class=&quot;hljs-attr&quot;&gt;vehicle&lt;/span&gt;: T): T  &lt;br/&gt;+ &lt;span class=&quot;hljs-title function_ invoke__&quot;&gt;getModel&lt;/span&gt;(): T  &lt;br/&gt;+ &lt;span class=&quot;hljs-title function_ invoke__&quot;&gt;getWorkshopList&lt;/span&gt;(): List&amp;lt;T&amp;gt;  &lt;br/&gt;+ &lt;span class=&quot;hljs-title function_ invoke__&quot;&gt;getCapacity&lt;/span&gt;(): &lt;span class=&quot;hljs-keyword&quot;&gt;int&lt;/span&gt;  &lt;br/&gt;+ &lt;span class=&quot;hljs-title function_ invoke__&quot;&gt;getCurrentLoad&lt;/span&gt;(): &lt;span class=&quot;hljs-keyword&quot;&gt;int&lt;/span&gt;  &lt;br/&gt;+ &lt;span class=&quot;hljs-title function_ invoke__&quot;&gt;getXPosition&lt;/span&gt;(): &lt;span class=&quot;hljs-keyword&quot;&gt;double&lt;/span&gt;  &lt;br/&gt;+ &lt;span class=&quot;hljs-title function_ invoke__&quot;&gt;getYPosition&lt;/span&gt;(): &lt;span class=&quot;hljs-keyword&quot;&gt;double&lt;/span&gt;" style="text;strokeColor=none;fillColor=none;align=left;verticalAlign=middle;spacingLeft=4;spacingRight=4;overflow=hidden;points=[[0,0.5],[1,0.5]];portConstraint=eastwest;rotatable=0;whiteSpace=wrap;html=1;" parent="rV6QF6fbAEuyPAtQNxwi-15" vertex="1">
                    <mxGeometry y="120" width="190" height="190" as="geometry"/>
                </mxCell>
                <mxCell id="rV6QF6fbAEuyPAtQNxwi-19" value="Use" style="endArrow=open;endSize=12;dashed=1;html=1;rounded=0;exitX=0.719;exitY=0.011;exitDx=0;exitDy=0;exitPerimeter=0;" parent="WIyWlLk6GJQsqaUBKTNV-1" source="MykYhQcLywwxDMIYupO4-15" target="5mUnr2l8FiMVsgKl3YdA-4" edge="1">
                    <mxGeometry width="160" relative="1" as="geometry">
                        <mxPoint x="-350" y="40" as="sourcePoint"/>
                        <mxPoint x="-190" y="40" as="targetPoint"/>
                    </mxGeometry>
                </mxCell>
                <mxCell id="rV6QF6fbAEuyPAtQNxwi-20" value="Drawpanel" style="swimlane;fontStyle=0;childLayout=stackLayout;horizontal=1;startSize=30;horizontalStack=0;resizeParent=1;resizeParentMax=0;resizeLast=0;collapsible=1;marginBottom=0;whiteSpace=wrap;html=1;" parent="WIyWlLk6GJQsqaUBKTNV-1" vertex="1">
                    <mxGeometry x="-1120" y="600" width="230" height="210" as="geometry"/>
                </mxCell>
                <mxCell id="rV6QF6fbAEuyPAtQNxwi-21" value="- image: BufferedImage  &lt;br/&gt;- images: HashMap&amp;lt;&lt;span class=&quot;hljs-type&quot;&gt;String&lt;/span&gt;, ImageData&amp;gt;  &lt;br/&gt;- volvoWorkshopImage: BufferedImage  &lt;br/&gt;- volvoWorkshopPoint: Point&amp;nbsp;" style="text;strokeColor=default;fillColor=none;align=left;verticalAlign=middle;spacingLeft=4;spacingRight=4;overflow=hidden;points=[[0,0.5],[1,0.5]];portConstraint=eastwest;rotatable=0;whiteSpace=wrap;html=1;" parent="rV6QF6fbAEuyPAtQNxwi-20" vertex="1">
                    <mxGeometry y="30" width="230" height="70" as="geometry"/>
                </mxCell>
                <mxCell id="rV6QF6fbAEuyPAtQNxwi-22" value="+ &lt;span class=&quot;hljs-built_in&quot;&gt;moveit&lt;/span&gt;(x: &lt;span class=&quot;hljs-type&quot;&gt;int&lt;/span&gt;, y: &lt;span class=&quot;hljs-type&quot;&gt;int&lt;/span&gt;, modelName: &lt;span class=&quot;hljs-type&quot;&gt;String&lt;/span&gt;): &lt;span class=&quot;hljs-type&quot;&gt;void&lt;/span&gt;  &lt;br/&gt;+ &lt;span class=&quot;hljs-built_in&quot;&gt;paintComponent&lt;/span&gt;(g: Graphics): &lt;span class=&quot;hljs-type&quot;&gt;void&lt;/span&gt;" style="text;strokeColor=none;fillColor=none;align=left;verticalAlign=middle;spacingLeft=4;spacingRight=4;overflow=hidden;points=[[0,0.5],[1,0.5]];portConstraint=eastwest;rotatable=0;whiteSpace=wrap;html=1;" parent="rV6QF6fbAEuyPAtQNxwi-20" vertex="1">
                    <mxGeometry y="100" width="230" height="50" as="geometry"/>
                </mxCell>
                <mxCell id="rV6QF6fbAEuyPAtQNxwi-23" value="+ &lt;span class=&quot;hljs-built_in&quot;&gt;ImageData&lt;/span&gt;(image: Image, position: Point)  &lt;br/&gt;- image: Image  &lt;br/&gt;- position: Point" style="text;strokeColor=none;fillColor=none;align=left;verticalAlign=middle;spacingLeft=4;spacingRight=4;overflow=hidden;points=[[0,0.5],[1,0.5]];portConstraint=eastwest;rotatable=0;whiteSpace=wrap;html=1;" parent="rV6QF6fbAEuyPAtQNxwi-20" vertex="1">
                    <mxGeometry y="150" width="230" height="60" as="geometry"/>
                </mxCell>
                <mxCell id="rV6QF6fbAEuyPAtQNxwi-25" value="Carview" style="swimlane;fontStyle=0;childLayout=stackLayout;horizontal=1;startSize=30;horizontalStack=0;resizeParent=1;resizeParentMax=0;resizeLast=0;collapsible=1;marginBottom=0;whiteSpace=wrap;html=1;" parent="WIyWlLk6GJQsqaUBKTNV-1" vertex="1">
                    <mxGeometry x="-830" y="564" width="290" height="740" as="geometry"/>
                </mxCell>
                <mxCell id="rV6QF6fbAEuyPAtQNxwi-26" value="&lt;span class=&quot;hljs-deletion&quot;&gt;- X: int  &lt;/span&gt;&lt;br&gt;&lt;span class=&quot;hljs-deletion&quot;&gt;- Y: int&lt;/span&gt;&lt;br&gt;&lt;span class=&quot;hljs-deletion&quot;&gt;- drawPanel: DrawPanel  &lt;/span&gt;&lt;br&gt;&lt;span class=&quot;hljs-deletion&quot;&gt;- controlPanel: JPanel  &lt;/span&gt;&lt;br&gt;&lt;span class=&quot;hljs-deletion&quot;&gt;- gasPanel: JPanel  &lt;/span&gt;&lt;br&gt;&lt;span class=&quot;hljs-deletion&quot;&gt;- gasSpinner: JSpinner  &lt;/span&gt;&lt;br&gt;&lt;span class=&quot;hljs-deletion&quot;&gt;- gasAmount: int  &lt;/span&gt;&lt;br&gt;&lt;span class=&quot;hljs-deletion&quot;&gt;- gasLabel: JLabel  &lt;/span&gt;&lt;br&gt;&lt;span class=&quot;hljs-deletion&quot;&gt;- gasButton: JButton  &lt;/span&gt;&lt;br&gt;&lt;span class=&quot;hljs-deletion&quot;&gt;- brakeButton: JButton  &lt;/span&gt;&lt;br&gt;&lt;span class=&quot;hljs-deletion&quot;&gt;- turboOnButton: JButton  &lt;/span&gt;&lt;br&gt;&lt;span class=&quot;hljs-deletion&quot;&gt;- turboOffButton: JButton  &lt;/span&gt;&lt;br&gt;&lt;span class=&quot;hljs-deletion&quot;&gt;- liftBedButton: JButton  &lt;/span&gt;&lt;br&gt;&lt;span class=&quot;hljs-deletion&quot;&gt;- lowerBedButton: JButton  &lt;/span&gt;&lt;br&gt;&lt;span class=&quot;hljs-deletion&quot;&gt;- startButton: JButton  &lt;/span&gt;&lt;br&gt;&lt;span class=&quot;hljs-deletion&quot;&gt;- stopButton: JButton&amp;nbsp;&amp;nbsp;&lt;/span&gt;" style="text;strokeColor=default;fillColor=none;align=left;verticalAlign=middle;spacingLeft=4;spacingRight=4;overflow=hidden;points=[[0,0.5],[1,0.5]];portConstraint=eastwest;rotatable=0;whiteSpace=wrap;html=1;" parent="rV6QF6fbAEuyPAtQNxwi-25" vertex="1">
                    <mxGeometry y="30" width="290" height="290" as="geometry"/>
                </mxCell>
                <mxCell id="rV6QF6fbAEuyPAtQNxwi-27" value="&lt;span class=&quot;hljs-addition&quot;&gt;+ setVisible(b: boolean): void  &lt;/span&gt;&lt;br&gt;&lt;span class=&quot;hljs-addition&quot;&gt;+ pack(): void  &lt;/span&gt;&lt;br&gt;&lt;span class=&quot;hljs-addition&quot;&gt;+ setDefaultCloseOperation(op: int): void&amp;nbsp;&amp;nbsp;&lt;/span&gt;&lt;div&gt;&lt;span class=&quot;hljs-addition&quot;&gt;&lt;span class=&quot;hljs-addition&quot;&gt;+ gasButton: actionPerformed(e: ActionEvent)  &lt;/span&gt;&lt;br/&gt;&lt;span class=&quot;hljs-addition&quot;&gt;+ brakeButton: actionPerformed(e: ActionEvent)  &lt;/span&gt;&lt;br/&gt;&lt;span class=&quot;hljs-addition&quot;&gt;+ stopButton: actionPerformed(e: ActionEvent)  &lt;/span&gt;&lt;br/&gt;&lt;span class=&quot;hljs-addition&quot;&gt;+ startButton: actionPerformed(e: ActionEvent)  &lt;/span&gt;&lt;br/&gt;&lt;span class=&quot;hljs-addition&quot;&gt;+ turboOnButton: actionPerformed(e: ActionEvent)  &lt;/span&gt;&lt;br/&gt;&lt;span class=&quot;hljs-addition&quot;&gt;+ turboOffButton: actionPerformed(e: ActionEvent)  &lt;/span&gt;&lt;br/&gt;&lt;span class=&quot;hljs-addition&quot;&gt;+ liftBedButton: actionPerformed(e: ActionEvent)  &lt;/span&gt;&lt;br/&gt;&lt;span class=&quot;hljs-addition&quot;&gt;+ lowerBedButton: actionPerformed(e: ActionEvent)&lt;/span&gt;&lt;/span&gt;&lt;/div&gt;" style="text;strokeColor=none;fillColor=none;align=left;verticalAlign=middle;spacingLeft=4;spacingRight=4;overflow=hidden;points=[[0,0.5],[1,0.5]];portConstraint=eastwest;rotatable=0;whiteSpace=wrap;html=1;" parent="rV6QF6fbAEuyPAtQNxwi-25" vertex="1">
                    <mxGeometry y="320" width="290" height="420" as="geometry"/>
                </mxCell>
                <mxCell id="rV6QF6fbAEuyPAtQNxwi-30" value="" style="endArrow=open;endFill=1;endSize=12;html=1;rounded=0;entryX=0.25;entryY=0;entryDx=0;entryDy=0;" parent="WIyWlLk6GJQsqaUBKTNV-1" edge="1" target="rV6QF6fbAEuyPAtQNxwi-25">
                    <mxGeometry width="160" relative="1" as="geometry">
                        <mxPoint x="-596.9516527164814" y="20" as="sourcePoint"/>
                        <mxPoint x="-948" y="598" as="targetPoint"/>
                    </mxGeometry>
                </mxCell>
                <mxCell id="rV6QF6fbAEuyPAtQNxwi-31" value="" style="endArrow=open;endFill=1;endSize=12;html=1;rounded=0;exitX=1.021;exitY=0.136;exitDx=0;exitDy=0;exitPerimeter=0;" parent="WIyWlLk6GJQsqaUBKTNV-1" edge="1">
                    <mxGeometry width="160" relative="1" as="geometry">
                        <mxPoint x="-939.9999999999998" y="810" as="sourcePoint"/>
                        <mxPoint x="-856.0899999999999" y="880.56" as="targetPoint"/>
                    </mxGeometry>
                </mxCell>
                <mxCell id="rV6QF6fbAEuyPAtQNxwi-32" value="JFrame" style="swimlane;fontStyle=0;childLayout=stackLayout;horizontal=1;startSize=30;horizontalStack=0;resizeParent=1;resizeParentMax=0;resizeLast=0;collapsible=1;marginBottom=0;whiteSpace=wrap;html=1;" parent="WIyWlLk6GJQsqaUBKTNV-1" vertex="1">
                    <mxGeometry x="-1131" y="1201" width="140" height="60" as="geometry"/>
                </mxCell>
                <mxCell id="rV6QF6fbAEuyPAtQNxwi-40" style="edgeStyle=orthogonalEdgeStyle;rounded=0;orthogonalLoop=1;jettySize=auto;html=1;entryX=0.5;entryY=0;entryDx=0;entryDy=0;" parent="WIyWlLk6GJQsqaUBKTNV-1" source="rV6QF6fbAEuyPAtQNxwi-39" target="rV6QF6fbAEuyPAtQNxwi-20" edge="1">
                    <mxGeometry relative="1" as="geometry"/>
                </mxCell>
                <mxCell id="rV6QF6fbAEuyPAtQNxwi-39" value="Jpanel" style="swimlane;fontStyle=0;childLayout=stackLayout;horizontal=1;startSize=30;horizontalStack=0;resizeParent=1;resizeParentMax=0;resizeLast=0;collapsible=1;marginBottom=0;whiteSpace=wrap;html=1;fillColor=#e1d5e7;strokeColor=#9673a6;rounded=1;" parent="WIyWlLk6GJQsqaUBKTNV-1" vertex="1">
                    <mxGeometry x="-1140" y="250" width="140" height="60" as="geometry"/>
                </mxCell>
                <mxCell id="rV6QF6fbAEuyPAtQNxwi-46" style="edgeStyle=orthogonalEdgeStyle;rounded=0;orthogonalLoop=1;jettySize=auto;html=1;" parent="WIyWlLk6GJQsqaUBKTNV-1" source="5mUnr2l8FiMVsgKl3YdA-2" target="rV6QF6fbAEuyPAtQNxwi-17" edge="1">
                    <mxGeometry relative="1" as="geometry">
                        <mxPoint x="210" y="619.9999999999995" as="targetPoint"/>
                    </mxGeometry>
                </mxCell>
                <mxCell id="fRvH9d7Fl_Srh9VhOspa-0" value="Positionmanger" style="swimlane;fontStyle=0;childLayout=stackLayout;horizontal=1;startSize=30;horizontalStack=0;resizeParent=1;resizeParentMax=0;resizeLast=0;collapsible=1;marginBottom=0;whiteSpace=wrap;html=1;" parent="WIyWlLk6GJQsqaUBKTNV-1" vertex="1">
                    <mxGeometry x="490" y="120" width="180" height="222" as="geometry"/>
                </mxCell>
                <mxCell id="fRvH9d7Fl_Srh9VhOspa-1" value="&lt;div&gt;&lt;span style=&quot;color: rgb(0, 0, 0); text-wrap: nowrap;&quot;&gt;- dictionary: HashMap&amp;lt;String, Double&amp;gt;&lt;/span&gt;&lt;br style=&quot;scrollbar-color: light-dark(#e2e2e2, #4b4b4b)&lt;br/&gt;&#x9;&#x9;&#x9;&#x9;&#x9;light-dark(#fbfbfb, var(--dark-panel-color)); padding: 0px; margin: 0px; text-wrap: nowrap;&quot;&gt;&lt;span style=&quot;color: rgb(0, 0, 0); text-wrap: nowrap;&quot;&gt;- direction: Point&lt;/span&gt;&lt;span style=&quot;text-align: center; text-wrap-mode: nowrap;&quot;&gt;&lt;br&gt;&lt;/span&gt;&lt;/div&gt;&lt;div&gt;&lt;span style=&quot;color: rgb(0, 0, 0); text-wrap: nowrap;&quot;&gt;&lt;br&gt;&lt;/span&gt;&lt;/div&gt;&lt;span style=&quot;text-align: center; text-wrap-mode: nowrap;&quot;&gt;#&amp;nbsp;&lt;/span&gt;&lt;span style=&quot;text-align: center; text-wrap-mode: nowrap;&quot; class=&quot;hljs-keyword&quot;&gt;move&lt;/span&gt;&lt;span style=&quot;text-align: center; text-wrap-mode: nowrap;&quot;&gt;():&amp;nbsp;&lt;/span&gt;&lt;span style=&quot;text-align: center; text-wrap-mode: nowrap;&quot; class=&quot;hljs-type&quot;&gt;void&lt;/span&gt;&lt;span style=&quot;text-align: center; text-wrap-mode: nowrap;&quot;&gt;&lt;/span&gt;&lt;br style=&quot;text-align: center; text-wrap-mode: nowrap;&quot;&gt;&lt;span style=&quot;text-align: center; text-wrap-mode: nowrap;&quot;&gt;+turnLeft():&amp;nbsp;&lt;/span&gt;&lt;span style=&quot;text-align: center; text-wrap-mode: nowrap;&quot; class=&quot;hljs-type&quot;&gt;void&lt;/span&gt;&lt;span style=&quot;text-align: center; text-wrap-mode: nowrap;&quot;&gt;&lt;/span&gt;&lt;br style=&quot;text-align: center; text-wrap-mode: nowrap;&quot;&gt;&lt;span style=&quot;text-align: center; text-wrap-mode: nowrap;&quot;&gt;+ turnRight():&amp;nbsp;&lt;/span&gt;&lt;span style=&quot;text-align: center; text-wrap-mode: nowrap;&quot; class=&quot;hljs-type&quot;&gt;void&lt;/span&gt;&lt;span style=&quot;text-align: center; text-wrap-mode: nowrap;&quot;&gt;&lt;/span&gt;&lt;br style=&quot;text-align: center; text-wrap-mode: nowrap;&quot;&gt;&lt;span style=&quot;text-align: center; text-wrap-mode: nowrap;&quot;&gt;+ getPositionX():&amp;nbsp;&lt;/span&gt;&lt;span style=&quot;text-align: center; text-wrap-mode: nowrap;&quot; class=&quot;hljs-type&quot;&gt;Double&lt;/span&gt;&lt;span style=&quot;text-align: center; text-wrap-mode: nowrap;&quot;&gt;&lt;/span&gt;&lt;br style=&quot;text-align: center; text-wrap-mode: nowrap;&quot;&gt;&lt;span style=&quot;text-align: center; text-wrap-mode: nowrap;&quot;&gt;+ getPositionY():&amp;nbsp;&lt;/span&gt;&lt;span style=&quot;text-align: center; text-wrap-mode: nowrap;&quot; class=&quot;hljs-type&quot;&gt;Double&lt;/span&gt;&lt;span style=&quot;text-align: center; text-wrap-mode: nowrap;&quot;&gt;&lt;/span&gt;&lt;br style=&quot;text-align: center; text-wrap-mode: nowrap;&quot;&gt;&lt;span style=&quot;text-align: center; text-wrap-mode: nowrap;&quot;&gt;+ addPositionX(x:&amp;nbsp;&lt;/span&gt;&lt;span style=&quot;text-align: center; text-wrap-mode: nowrap;&quot; class=&quot;hljs-type&quot;&gt;Double&lt;/span&gt;&lt;span style=&quot;text-align: center; text-wrap-mode: nowrap;&quot;&gt;):&amp;nbsp;&lt;/span&gt;&lt;span style=&quot;text-align: center; text-wrap-mode: nowrap;&quot; class=&quot;hljs-type&quot;&gt;void&lt;/span&gt;&lt;span style=&quot;text-align: center; text-wrap-mode: nowrap;&quot;&gt;&lt;/span&gt;&lt;br style=&quot;text-align: center; text-wrap-mode: nowrap;&quot;&gt;&lt;span style=&quot;text-align: center; text-wrap-mode: nowrap;&quot;&gt;+ addPositionY(y:&amp;nbsp;&lt;/span&gt;&lt;span style=&quot;text-align: center; text-wrap-mode: nowrap;&quot; class=&quot;hljs-type&quot;&gt;Double&lt;/span&gt;&lt;span style=&quot;text-align: center; text-wrap-mode: nowrap;&quot;&gt;):&amp;nbsp;&lt;/span&gt;&lt;span style=&quot;text-align: center; text-wrap-mode: nowrap;&quot; class=&quot;hljs-type&quot;&gt;void&lt;/span&gt;&lt;span style=&quot;text-align: center; text-wrap-mode: nowrap;&quot;&gt;&lt;/span&gt;&lt;br style=&quot;text-align: center; text-wrap-mode: nowrap;&quot;&gt;&lt;span style=&quot;text-align: center; text-wrap-mode: nowrap;&quot;&gt;+ getDirection():&amp;nbsp;&lt;/span&gt;&lt;span style=&quot;text-align: center; text-wrap-mode: nowrap;&quot; class=&quot;hljs-type&quot;&gt;Point&lt;/span&gt;" style="text;strokeColor=none;fillColor=none;align=left;verticalAlign=middle;spacingLeft=4;spacingRight=4;overflow=hidden;points=[[0,0.5],[1,0.5]];portConstraint=eastwest;rotatable=0;whiteSpace=wrap;html=1;" parent="fRvH9d7Fl_Srh9VhOspa-0" vertex="1">
                    <mxGeometry y="30" width="180" height="192" as="geometry"/>
                </mxCell>
                <mxCell id="0" value="CarFactory" style="swimlane;fontStyle=0;childLayout=stackLayout;horizontal=1;startSize=30;horizontalStack=0;resizeParent=1;resizeParentMax=0;resizeLast=0;collapsible=1;marginBottom=0;whiteSpace=wrap;html=1;" vertex="1" parent="WIyWlLk6GJQsqaUBKTNV-1">
                    <mxGeometry x="-1351" y="-293" width="140" height="91" as="geometry"/>
                </mxCell>
                <mxCell id="2" value="CreateCar()" style="text;strokeColor=none;fillColor=none;align=left;verticalAlign=middle;spacingLeft=4;spacingRight=4;overflow=hidden;points=[[0,0.5],[1,0.5]];portConstraint=eastwest;rotatable=0;whiteSpace=wrap;html=1;" vertex="1" parent="0">
                    <mxGeometry y="30" width="140" height="61" as="geometry"/>
                </mxCell>
                <mxCell id="7" value="" style="endArrow=block;dashed=1;endFill=0;endSize=12;html=1;rounded=0;entryX=0.307;entryY=1.034;entryDx=0;entryDy=0;entryPerimeter=0;" edge="1" parent="WIyWlLk6GJQsqaUBKTNV-1" target="2">
                    <mxGeometry width="160" relative="1" as="geometry">
                        <mxPoint x="-1467.91" y="-30" as="sourcePoint"/>
                        <mxPoint x="-1467.91" y="-220" as="targetPoint"/>
                    </mxGeometry>
                </mxCell>
                <mxCell id="8" value="SaabFactory" style="swimlane;fontStyle=0;childLayout=stackLayout;horizontal=1;startSize=30;horizontalStack=0;resizeParent=1;resizeParentMax=0;resizeLast=0;collapsible=1;marginBottom=0;whiteSpace=wrap;html=1;" vertex="1" parent="WIyWlLk6GJQsqaUBKTNV-1">
                    <mxGeometry x="-1327" y="-22" width="140" height="91" as="geometry"/>
                </mxCell>
                <mxCell id="9" value="Saab : CreateCar()" style="text;strokeColor=none;fillColor=none;align=left;verticalAlign=middle;spacingLeft=4;spacingRight=4;overflow=hidden;points=[[0,0.5],[1,0.5]];portConstraint=eastwest;rotatable=0;whiteSpace=wrap;html=1;" vertex="1" parent="8">
                    <mxGeometry y="30" width="140" height="61" as="geometry"/>
                </mxCell>
                <mxCell id="10" value="VolvoFactory" style="swimlane;fontStyle=0;childLayout=stackLayout;horizontal=1;startSize=30;horizontalStack=0;resizeParent=1;resizeParentMax=0;resizeLast=0;collapsible=1;marginBottom=0;whiteSpace=wrap;html=1;" vertex="1" parent="WIyWlLk6GJQsqaUBKTNV-1">
                    <mxGeometry x="-1084" y="-20.5" width="140" height="91" as="geometry"/>
                </mxCell>
                <mxCell id="11" value="Volvo: CreateCar()" style="text;strokeColor=none;fillColor=none;align=left;verticalAlign=middle;spacingLeft=4;spacingRight=4;overflow=hidden;points=[[0,0.5],[1,0.5]];portConstraint=eastwest;rotatable=0;whiteSpace=wrap;html=1;" vertex="1" parent="10">
                    <mxGeometry y="30" width="140" height="61" as="geometry"/>
                </mxCell>
                <mxCell id="12" value="ScaniaFactory" style="swimlane;fontStyle=0;childLayout=stackLayout;horizontal=1;startSize=30;horizontalStack=0;resizeParent=1;resizeParentMax=0;resizeLast=0;collapsible=1;marginBottom=0;whiteSpace=wrap;html=1;" vertex="1" parent="WIyWlLk6GJQsqaUBKTNV-1">
                    <mxGeometry x="-1537" y="-30" width="140" height="91" as="geometry"/>
                </mxCell>
                <mxCell id="13" value="Scania : CreateCar()" style="text;strokeColor=none;fillColor=none;align=left;verticalAlign=middle;spacingLeft=4;spacingRight=4;overflow=hidden;points=[[0,0.5],[1,0.5]];portConstraint=eastwest;rotatable=0;whiteSpace=wrap;html=1;" vertex="1" parent="12">
                    <mxGeometry y="30" width="140" height="61" as="geometry"/>
                </mxCell>
                <mxCell id="14" value="" style="endArrow=block;dashed=1;endFill=0;endSize=12;html=1;rounded=0;entryX=0.749;entryY=0.945;entryDx=0;entryDy=0;entryPerimeter=0;" edge="1" parent="WIyWlLk6GJQsqaUBKTNV-1" target="2">
                    <mxGeometry width="160" relative="1" as="geometry">
                        <mxPoint x="-1067" y="-20.5" as="sourcePoint"/>
                        <mxPoint x="-907.0899999999999" y="-190.5" as="targetPoint"/>
                    </mxGeometry>
                </mxCell>
                <mxCell id="16" value="Use" style="endArrow=open;endSize=12;dashed=1;html=1;rounded=0;exitX=0.719;exitY=0.011;exitDx=0;exitDy=0;exitPerimeter=0;entryX=0.011;entryY=0.911;entryDx=0;entryDy=0;entryPerimeter=0;" edge="1" parent="WIyWlLk6GJQsqaUBKTNV-1" target="rV6QF6fbAEuyPAtQNxwi-2">
                    <mxGeometry width="160" relative="1" as="geometry">
                        <mxPoint x="-1017" y="-20.5" as="sourcePoint"/>
                        <mxPoint x="-947" y="-102.5" as="targetPoint"/>
                    </mxGeometry>
                </mxCell>
                <mxCell id="17" value="Use" style="endArrow=open;endSize=12;dashed=1;html=1;rounded=0;exitX=0.719;exitY=0.011;exitDx=0;exitDy=0;exitPerimeter=0;entryX=0.011;entryY=0.183;entryDx=0;entryDy=0;entryPerimeter=0;" edge="1" parent="WIyWlLk6GJQsqaUBKTNV-1" target="rV6QF6fbAEuyPAtQNxwi-2">
                    <mxGeometry width="160" relative="1" as="geometry">
                        <mxPoint x="-1187" y="-6.5" as="sourcePoint"/>
                        <mxPoint x="-987" y="-121" as="targetPoint"/>
                    </mxGeometry>
                </mxCell>
                <mxCell id="18" value="Use" style="endArrow=open;endSize=12;dashed=1;html=1;rounded=0;exitX=0.719;exitY=0.011;exitDx=0;exitDy=0;exitPerimeter=0;entryX=-0.01;entryY=0.065;entryDx=0;entryDy=0;entryPerimeter=0;" edge="1" parent="WIyWlLk6GJQsqaUBKTNV-1" target="rV6QF6fbAEuyPAtQNxwi-1">
                    <mxGeometry width="160" relative="1" as="geometry">
                        <mxPoint x="-1397" y="-16.5" as="sourcePoint"/>
                        <mxPoint x="-1027" y="-189" as="targetPoint"/>
                    </mxGeometry>
                </mxCell>
                <mxCell id="19" value="" style="endArrow=block;dashed=1;endFill=0;endSize=12;html=1;rounded=0;entryX=0.498;entryY=0.986;entryDx=0;entryDy=0;entryPerimeter=0;" edge="1" parent="WIyWlLk6GJQsqaUBKTNV-1" target="2">
                    <mxGeometry width="160" relative="1" as="geometry">
                        <mxPoint x="-1235" y="-22" as="sourcePoint"/>
                        <mxPoint x="-1414" y="-206.5" as="targetPoint"/>
                    </mxGeometry>
                </mxCell>
                <mxCell id="22" value="vehiclefunctionality_method" style="swimlane;fontStyle=0;childLayout=stackLayout;horizontal=1;startSize=20;horizontalStack=0;resizeParent=1;resizeParentMax=0;resizeLast=0;collapsible=1;marginBottom=0;whiteSpace=wrap;html=1;" vertex="1" parent="WIyWlLk6GJQsqaUBKTNV-1">
                    <mxGeometry x="-982" y="303" width="159" height="150" as="geometry"/>
                </mxCell>
                <mxCell id="24" value="&lt;div style=&quot;scrollbar-color: light-dark(#e2e2e2, #4b4b4b)&lt;br/&gt;&#x9;&#x9;&#x9;&#x9;&#x9;light-dark(#fbfbfb, var(--dark-panel-color));&quot;&gt;&amp;nbsp;turboOn(): void&lt;/div&gt;&lt;div style=&quot;scrollbar-color: light-dark(#e2e2e2, #4b4b4b)&lt;br/&gt;&#x9;&#x9;&#x9;&#x9;&#x9;light-dark(#fbfbfb, var(--dark-panel-color));&quot;&gt;&amp;nbsp;turboOff(): void&lt;/div&gt;&lt;div style=&quot;scrollbar-color: light-dark(#e2e2e2, #4b4b4b)&lt;br/&gt;&#x9;&#x9;&#x9;&#x9;&#x9;light-dark(#fbfbfb, var(--dark-panel-color));&quot;&gt;&amp;nbsp;Brake(amount: int): void&lt;/div&gt;&lt;div style=&quot;scrollbar-color: light-dark(#e2e2e2, #4b4b4b)&lt;br/&gt;&#x9;&#x9;&#x9;&#x9;&#x9;light-dark(#fbfbfb, var(--dark-panel-color));&quot;&gt;Gas(amount : int) : void&lt;/div&gt;&lt;div style=&quot;scrollbar-color: light-dark(#e2e2e2, #4b4b4b)&lt;br/&gt;&#x9;&#x9;&#x9;&#x9;&#x9;light-dark(#fbfbfb, var(--dark-panel-color));&quot;&gt;liftScaniaBed(): void&lt;/div&gt;&lt;div style=&quot;scrollbar-color: light-dark(#e2e2e2, #4b4b4b)&lt;br/&gt;&#x9;&#x9;&#x9;&#x9;&#x9;light-dark(#fbfbfb, var(--dark-panel-color));&quot;&gt;lowerScaniaBed(): void&lt;/div&gt;&lt;div style=&quot;scrollbar-color: light-dark(#e2e2e2, #4b4b4b)&lt;br/&gt;&#x9;&#x9;&#x9;&#x9;&#x9;light-dark(#fbfbfb, var(--dark-panel-color));&quot;&gt;stopallcars(): void&lt;/div&gt;&lt;div style=&quot;scrollbar-color: light-dark(#e2e2e2, #4b4b4b)&lt;br/&gt;&#x9;&#x9;&#x9;&#x9;&#x9;light-dark(#fbfbfb, var(--dark-panel-color));&quot;&gt;startallcars(): void&lt;/div&gt;" style="text;strokeColor=none;fillColor=none;align=left;verticalAlign=middle;spacingLeft=4;spacingRight=4;overflow=hidden;points=[[0,0.5],[1,0.5]];portConstraint=eastwest;rotatable=0;whiteSpace=wrap;html=1;" vertex="1" parent="22">
                    <mxGeometry y="20" width="159" height="130" as="geometry"/>
                </mxCell>
                <mxCell id="27" value="" style="endArrow=block;dashed=1;endFill=0;endSize=12;html=1;rounded=0;exitX=0.065;exitY=0.989;exitDx=0;exitDy=0;exitPerimeter=0;" edge="1" parent="WIyWlLk6GJQsqaUBKTNV-1" source="rV6QF6fbAEuyPAtQNxwi-3">
                    <mxGeometry width="160" relative="1" as="geometry">
                        <mxPoint x="-842" y="56" as="sourcePoint"/>
                        <mxPoint x="-881" y="298" as="targetPoint"/>
                    </mxGeometry>
                </mxCell>
                <mxCell id="28" style="edgeStyle=none;html=1;entryX=0.002;entryY=0.615;entryDx=0;entryDy=0;entryPerimeter=0;" edge="1" parent="WIyWlLk6GJQsqaUBKTNV-1" source="rV6QF6fbAEuyPAtQNxwi-32" target="rV6QF6fbAEuyPAtQNxwi-27">
                    <mxGeometry relative="1" as="geometry"/>
                </mxCell>
                <mxCell id="30" value="" style="endArrow=block;dashed=1;endFill=0;endSize=12;html=1;rounded=0;entryX=0.333;entryY=1.015;entryDx=0;entryDy=0;entryPerimeter=0;exitX=-0.015;exitY=0.015;exitDx=0;exitDy=0;exitPerimeter=0;" edge="1" parent="WIyWlLk6GJQsqaUBKTNV-1" source="rV6QF6fbAEuyPAtQNxwi-26" target="24">
                    <mxGeometry width="160" relative="1" as="geometry">
                        <mxPoint x="-858.2723214285716" y="506" as="sourcePoint"/>
                        <mxPoint x="-861" y="607" as="targetPoint"/>
                        <Array as="points">
                            <mxPoint x="-861" y="553"/>
                        </Array>
                    </mxGeometry>
                </mxCell>
                <mxCell id="32" value="Use" style="endArrow=open;endSize=12;dashed=1;html=1;rounded=0;exitX=1.003;exitY=0.763;exitDx=0;exitDy=0;exitPerimeter=0;entryX=0.001;entryY=0.74;entryDx=0;entryDy=0;entryPerimeter=0;" edge="1" parent="WIyWlLk6GJQsqaUBKTNV-1" source="5mUnr2l8FiMVsgKl3YdA-2" target="fRvH9d7Fl_Srh9VhOspa-1">
                    <mxGeometry width="160" relative="1" as="geometry">
                        <mxPoint x="479.0799999999999" y="270.998" as="sourcePoint"/>
                        <mxPoint x="456" y="387.01526315789476" as="targetPoint"/>
                    </mxGeometry>
                </mxCell>
            </root>
        </mxGraphModel>
    </diagram>
</mxfile>